<svg width="53" height="50" viewBox="0 0 53 50" fill="none" xmlns="http://www.w3.org/2000/svg">
<circle cx="25" cy="25" r="25" fill="#0B36A8"/>
<path d="M12.4688 31H8.5918V16.9375H15.5059C16.1569 16.9375 16.7852 17.0156 17.3906 17.1719C17.9961 17.3216 18.5299 17.5625 18.9922 17.8945C19.4609 18.2201 19.832 18.6432 20.1055 19.1641C20.3854 19.6849 20.5254 20.3164 20.5254 21.0586C20.5254 21.638 20.4017 22.1849 20.1543 22.6992C19.9134 23.207 19.5879 23.6628 19.1777 24.0664C18.7741 24.4635 18.3086 24.7956 17.7812 25.0625C17.2539 25.3229 16.707 25.4954 16.1406 25.5801C16.3945 26.0098 16.6582 26.4167 16.9316 26.8008C17.2116 27.1849 17.4915 27.5462 17.7715 27.8848C18.0579 28.2168 18.3411 28.526 18.6211 28.8125C18.901 29.0924 19.168 29.3496 19.4219 29.584C20.0208 30.1309 20.6133 30.6029 21.1992 31H16.3652C15.9746 30.6289 15.6035 30.1829 15.252 29.6621C14.9525 29.2194 14.6497 28.6725 14.3438 28.0215C14.0443 27.3639 13.8132 26.6055 13.6504 25.7461H12.4688V31ZM16.5898 21.0586C16.5898 20.1146 16.3587 19.4212 15.8965 18.9785C15.4408 18.5358 14.7539 18.3145 13.8359 18.3145H12.4688V24.418H13.8359C14.3242 24.418 14.7409 24.3268 15.0859 24.1445C15.4375 23.9557 15.724 23.7083 15.9453 23.4023C16.1667 23.0898 16.3294 22.7318 16.4336 22.3281C16.5378 21.9245 16.5898 21.5013 16.5898 21.0586ZM26.0137 29.5352C26.0137 29.7826 25.9681 30.0169 25.877 30.2383C25.7858 30.4531 25.6589 30.6419 25.4961 30.8047C25.3333 30.9609 25.1445 31.0846 24.9297 31.1758C24.7148 31.2734 24.4837 31.3223 24.2363 31.3223C23.9889 31.3223 23.7578 31.2734 23.543 31.1758C23.3281 31.0846 23.1393 30.9609 22.9766 30.8047C22.8138 30.6419 22.6868 30.4531 22.5957 30.2383C22.5046 30.0169 22.459 29.7826 22.459 29.5352C22.459 29.2943 22.5046 29.0664 22.5957 28.8516C22.6868 28.6302 22.8138 28.4414 22.9766 28.2852C23.1393 28.1224 23.3281 27.9954 23.543 27.9043C23.7578 27.8066 23.9889 27.7578 24.2363 27.7578C24.4837 27.7578 24.7148 27.8066 24.9297 27.9043C25.1445 27.9954 25.3333 28.1224 25.4961 28.2852C25.6589 28.4414 25.7858 28.6302 25.877 28.8516C25.9681 29.0664 26.0137 29.2943 26.0137 29.5352ZM41.5801 27.1816C41.5801 27.5788 41.515 27.9499 41.3848 28.2949C41.2546 28.64 41.0755 28.9557 40.8477 29.2422C40.6198 29.5221 40.3529 29.7728 40.0469 29.9941C39.7474 30.2155 39.4219 30.401 39.0703 30.5508C38.7253 30.7005 38.3672 30.8145 37.9961 30.8926C37.625 30.9642 37.2604 31 36.9023 31H28.6309V16.9375H36.1895C36.5215 16.9375 36.8698 16.9635 37.2344 17.0156C37.599 17.0612 37.9538 17.1361 38.2988 17.2402C38.6504 17.3444 38.9824 17.4811 39.2949 17.6504C39.6139 17.8197 39.8906 18.028 40.125 18.2754C40.3659 18.5163 40.5547 18.7962 40.6914 19.1152C40.8346 19.4342 40.9062 19.7988 40.9062 20.209C40.9062 20.5996 40.8281 20.9544 40.6719 21.2734C40.5156 21.5924 40.304 21.8789 40.0371 22.1328C39.7767 22.3802 39.474 22.6016 39.1289 22.7969C38.7904 22.9857 38.4323 23.1517 38.0547 23.2949C38.5299 23.4251 38.9792 23.5977 39.4023 23.8125C39.832 24.0273 40.2064 24.291 40.5254 24.6035C40.8509 24.916 41.1081 25.2871 41.2969 25.7168C41.4857 26.14 41.5801 26.6283 41.5801 27.1816ZM36.9707 20.5508C36.9707 19.7565 36.7591 19.1771 36.3359 18.8125C35.9193 18.4479 35.3236 18.2656 34.5488 18.2656H32.5078V22.8262H34.2168C34.5684 22.8262 34.9102 22.7839 35.2422 22.6992C35.5742 22.6081 35.8672 22.4714 36.1211 22.2891C36.3815 22.1003 36.5866 21.8626 36.7363 21.5762C36.8926 21.2897 36.9707 20.9479 36.9707 20.5508ZM37.6543 26.9375C37.6543 26.5534 37.6055 26.1953 37.5078 25.8633C37.4102 25.5247 37.2604 25.235 37.0586 24.9941C36.8568 24.7467 36.6029 24.5547 36.2969 24.418C35.9974 24.2747 35.6426 24.2031 35.2324 24.2031H32.5078V29.6328H34.8906C35.2878 29.6328 35.6556 29.5677 35.9941 29.4375C36.3327 29.3073 36.6257 29.125 36.873 28.8906C37.1204 28.6562 37.3125 28.373 37.4492 28.041C37.5859 27.709 37.6543 27.3411 37.6543 26.9375ZM46.8926 29.5352C46.8926 29.7826 46.847 30.0169 46.7559 30.2383C46.6647 30.4531 46.5378 30.6419 46.375 30.8047C46.2122 30.9609 46.0234 31.0846 45.8086 31.1758C45.5938 31.2734 45.3626 31.3223 45.1152 31.3223C44.8678 31.3223 44.6367 31.2734 44.4219 31.1758C44.207 31.0846 44.0182 30.9609 43.8555 30.8047C43.6927 30.6419 43.5658 30.4531 43.4746 30.2383C43.3835 30.0169 43.3379 29.7826 43.3379 29.5352C43.3379 29.2943 43.3835 29.0664 43.4746 28.8516C43.5658 28.6302 43.6927 28.4414 43.8555 28.2852C44.0182 28.1224 44.207 27.9954 44.4219 27.9043C44.6367 27.8066 44.8678 27.7578 45.1152 27.7578C45.3626 27.7578 45.5938 27.8066 45.8086 27.9043C46.0234 27.9954 46.2122 28.1224 46.375 28.2852C46.5378 28.4414 46.6647 28.6302 46.7559 28.8516C46.847 29.0664 46.8926 29.2943 46.8926 29.5352Z" fill="white"/>
</svg>
