<svg width="50" height="50" viewBox="0 0 50 50" fill="none" xmlns="http://www.w3.org/2000/svg">
<circle cx="25" cy="25" r="25" fill="#D9D9D9"/>
<path d="M9.46875 31H5.5918V16.9375H12.5059C13.1569 16.9375 13.7852 17.0156 14.3906 17.1719C14.9961 17.3216 15.5299 17.5625 15.9922 17.8945C16.4609 18.2201 16.832 18.6432 17.1055 19.1641C17.3854 19.6849 17.5254 20.3164 17.5254 21.0586C17.5254 21.638 17.4017 22.1849 17.1543 22.6992C16.9134 23.207 16.5879 23.6628 16.1777 24.0664C15.7741 24.4635 15.3086 24.7956 14.7812 25.0625C14.2539 25.3229 13.707 25.4954 13.1406 25.5801C13.3945 26.0098 13.6582 26.4167 13.9316 26.8008C14.2116 27.1849 14.4915 27.5462 14.7715 27.8848C15.0579 28.2168 15.3411 28.526 15.6211 28.8125C15.901 29.0924 16.168 29.3496 16.4219 29.584C17.0208 30.1309 17.6133 30.6029 18.1992 31H13.3652C12.9746 30.6289 12.6035 30.1829 12.252 29.6621C11.9525 29.2194 11.6497 28.6725 11.3438 28.0215C11.0443 27.3639 10.8132 26.6055 10.6504 25.7461H9.46875V31ZM13.5898 21.0586C13.5898 20.1146 13.3587 19.4212 12.8965 18.9785C12.4408 18.5358 11.7539 18.3145 10.8359 18.3145H9.46875V24.418H10.8359C11.3242 24.418 11.7409 24.3268 12.0859 24.1445C12.4375 23.9557 12.724 23.7083 12.9453 23.4023C13.1667 23.0898 13.3294 22.7318 13.4336 22.3281C13.5378 21.9245 13.5898 21.5013 13.5898 21.0586ZM23.0137 29.5352C23.0137 29.7826 22.9681 30.0169 22.877 30.2383C22.7858 30.4531 22.6589 30.6419 22.4961 30.8047C22.3333 30.9609 22.1445 31.0846 21.9297 31.1758C21.7148 31.2734 21.4837 31.3223 21.2363 31.3223C20.9889 31.3223 20.7578 31.2734 20.543 31.1758C20.3281 31.0846 20.1393 30.9609 19.9766 30.8047C19.8138 30.6419 19.6868 30.4531 19.5957 30.2383C19.5046 30.0169 19.459 29.7826 19.459 29.5352C19.459 29.2943 19.5046 29.0664 19.5957 28.8516C19.6868 28.6302 19.8138 28.4414 19.9766 28.2852C20.1393 28.1224 20.3281 27.9954 20.543 27.9043C20.7578 27.8066 20.9889 27.7578 21.2363 27.7578C21.4837 27.7578 21.7148 27.8066 21.9297 27.9043C22.1445 27.9954 22.3333 28.1224 22.4961 28.2852C22.6589 28.4414 22.7858 28.6302 22.877 28.8516C22.9681 29.0664 23.0137 29.2943 23.0137 29.5352ZM38.5801 27.1816C38.5801 27.5788 38.515 27.9499 38.3848 28.2949C38.2546 28.64 38.0755 28.9557 37.8477 29.2422C37.6198 29.5221 37.3529 29.7728 37.0469 29.9941C36.7474 30.2155 36.4219 30.401 36.0703 30.5508C35.7253 30.7005 35.3672 30.8145 34.9961 30.8926C34.625 30.9642 34.2604 31 33.9023 31H25.6309V16.9375H33.1895C33.5215 16.9375 33.8698 16.9635 34.2344 17.0156C34.599 17.0612 34.9538 17.1361 35.2988 17.2402C35.6504 17.3444 35.9824 17.4811 36.2949 17.6504C36.6139 17.8197 36.8906 18.028 37.125 18.2754C37.3659 18.5163 37.5547 18.7962 37.6914 19.1152C37.8346 19.4342 37.9062 19.7988 37.9062 20.209C37.9062 20.5996 37.8281 20.9544 37.6719 21.2734C37.5156 21.5924 37.304 21.8789 37.0371 22.1328C36.7767 22.3802 36.474 22.6016 36.1289 22.7969C35.7904 22.9857 35.4323 23.1517 35.0547 23.2949C35.5299 23.4251 35.9792 23.5977 36.4023 23.8125C36.832 24.0273 37.2064 24.291 37.5254 24.6035C37.8509 24.916 38.1081 25.2871 38.2969 25.7168C38.4857 26.14 38.5801 26.6283 38.5801 27.1816ZM33.9707 20.5508C33.9707 19.7565 33.7591 19.1771 33.3359 18.8125C32.9193 18.4479 32.3236 18.2656 31.5488 18.2656H29.5078V22.8262H31.2168C31.5684 22.8262 31.9102 22.7839 32.2422 22.6992C32.5742 22.6081 32.8672 22.4714 33.1211 22.2891C33.3815 22.1003 33.5866 21.8626 33.7363 21.5762C33.8926 21.2897 33.9707 20.9479 33.9707 20.5508ZM34.6543 26.9375C34.6543 26.5534 34.6055 26.1953 34.5078 25.8633C34.4102 25.5247 34.2604 25.235 34.0586 24.9941C33.8568 24.7467 33.6029 24.5547 33.2969 24.418C32.9974 24.2747 32.6426 24.2031 32.2324 24.2031H29.5078V29.6328H31.8906C32.2878 29.6328 32.6556 29.5677 32.9941 29.4375C33.3327 29.3073 33.6257 29.125 33.873 28.8906C34.1204 28.6562 34.3125 28.373 34.4492 28.041C34.5859 27.709 34.6543 27.3411 34.6543 26.9375ZM43.8926 29.5352C43.8926 29.7826 43.847 30.0169 43.7559 30.2383C43.6647 30.4531 43.5378 30.6419 43.375 30.8047C43.2122 30.9609 43.0234 31.0846 42.8086 31.1758C42.5938 31.2734 42.3626 31.3223 42.1152 31.3223C41.8678 31.3223 41.6367 31.2734 41.4219 31.1758C41.207 31.0846 41.0182 30.9609 40.8555 30.8047C40.6927 30.6419 40.5658 30.4531 40.4746 30.2383C40.3835 30.0169 40.3379 29.7826 40.3379 29.5352C40.3379 29.2943 40.3835 29.0664 40.4746 28.8516C40.5658 28.6302 40.6927 28.4414 40.8555 28.2852C41.0182 28.1224 41.207 27.9954 41.4219 27.9043C41.6367 27.8066 41.8678 27.7578 42.1152 27.7578C42.3626 27.7578 42.5938 27.8066 42.8086 27.9043C43.0234 27.9954 43.2122 28.1224 43.375 28.2852C43.5378 28.4414 43.6647 28.6302 43.7559 28.8516C43.847 29.0664 43.8926 29.2943 43.8926 29.5352Z" fill="#0B36A8"/>
</svg>
