<svg width="169" height="36" viewBox="0 0 169 36" fill="none" xmlns="http://www.w3.org/2000/svg">
<rect width="169" height="36" rx="18" fill="#0B36A8"/>
<path d="M26.4688 25H22.5918V10.9375H29.5059C30.1569 10.9375 30.7852 11.0156 31.3906 11.1719C31.9961 11.3216 32.5299 11.5625 32.9922 11.8945C33.4609 12.2201 33.832 12.6432 34.1055 13.1641C34.3854 13.6849 34.5254 14.3164 34.5254 15.0586C34.5254 15.638 34.4017 16.1849 34.1543 16.6992C33.9134 17.207 33.5879 17.6628 33.1777 18.0664C32.7741 18.4635 32.3086 18.7956 31.7812 19.0625C31.2539 19.3229 30.707 19.4954 30.1406 19.5801C30.3945 20.0098 30.6582 20.4167 30.9316 20.8008C31.2116 21.1849 31.4915 21.5462 31.7715 21.8848C32.0579 22.2168 32.3411 22.526 32.6211 22.8125C32.901 23.0924 33.168 23.3496 33.4219 23.584C34.0208 24.1309 34.6133 24.6029 35.1992 25H30.3652C29.9746 24.6289 29.6035 24.1829 29.252 23.6621C28.9525 23.2194 28.6497 22.6725 28.3438 22.0215C28.0443 21.3639 27.8132 20.6055 27.6504 19.7461H26.4688V25ZM30.5898 15.0586C30.5898 14.1146 30.3587 13.4212 29.8965 12.9785C29.4408 12.5358 28.7539 12.3145 27.8359 12.3145H26.4688V18.418H27.8359C28.3242 18.418 28.7409 18.3268 29.0859 18.1445C29.4375 17.9557 29.724 17.7083 29.9453 17.4023C30.1667 17.0898 30.3294 16.7318 30.4336 16.3281C30.5378 15.9245 30.5898 15.5013 30.5898 15.0586ZM48.3145 19.3359C48.3145 19.9219 48.2363 20.472 48.0801 20.9863C47.9238 21.5007 47.7057 21.9759 47.4258 22.4121C47.1523 22.8483 46.8203 23.2422 46.4297 23.5938C46.0391 23.9388 45.6094 24.2318 45.1406 24.4727C44.6784 24.7135 44.1803 24.8991 43.6465 25.0293C43.1191 25.1595 42.5755 25.2246 42.0156 25.2246C41.4557 25.2246 40.9121 25.1595 40.3848 25.0293C39.8574 24.8991 39.3594 24.7135 38.8906 24.4727C38.4284 24.2318 38.002 23.9388 37.6113 23.5938C37.2207 23.2422 36.8854 22.8483 36.6055 22.4121C36.332 21.9759 36.1172 21.5007 35.9609 20.9863C35.8047 20.4655 35.7266 19.9154 35.7266 19.3359C35.7266 18.7565 35.8047 18.2096 35.9609 17.6953C36.1172 17.1745 36.332 16.696 36.6055 16.2598C36.8854 15.8236 37.2207 15.4329 37.6113 15.0879C38.002 14.7363 38.4284 14.4401 38.8906 14.1992C39.3594 13.9583 39.8574 13.7728 40.3848 13.6426C40.9121 13.5124 41.4557 13.4473 42.0156 13.4473C42.5755 13.4473 43.1191 13.5124 43.6465 13.6426C44.1803 13.7728 44.6784 13.9583 45.1406 14.1992C45.6094 14.4401 46.0391 14.7363 46.4297 15.0879C46.8203 15.4329 47.1523 15.8236 47.4258 16.2598C47.7057 16.696 47.9238 17.1745 48.0801 17.6953C48.2363 18.2096 48.3145 18.7565 48.3145 19.3359ZM44.9551 19.3359C44.9551 19.0234 44.9355 18.6947 44.8965 18.3496C44.8639 17.998 44.8053 17.6562 44.7207 17.3242C44.6361 16.9857 44.5189 16.6634 44.3691 16.3574C44.2259 16.0449 44.0469 15.7747 43.832 15.5469C43.6172 15.3125 43.36 15.127 43.0605 14.9902C42.7611 14.847 42.4128 14.7754 42.0156 14.7754C41.638 14.7754 41.3027 14.847 41.0098 14.9902C40.7168 15.1335 40.4596 15.3255 40.2383 15.5664C40.0234 15.8008 39.8411 16.0742 39.6914 16.3867C39.5482 16.6992 39.431 17.0247 39.3398 17.3633C39.2487 17.6953 39.1836 18.0339 39.1445 18.3789C39.1055 18.7174 39.0859 19.0365 39.0859 19.3359C39.0859 19.6354 39.1055 19.9577 39.1445 20.3027C39.1836 20.6413 39.2487 20.9798 39.3398 21.3184C39.431 21.6569 39.5482 21.9824 39.6914 22.2949C39.8411 22.6009 40.0234 22.8743 40.2383 23.1152C40.4596 23.3496 40.7168 23.5384 41.0098 23.6816C41.3027 23.8249 41.638 23.8965 42.0156 23.8965C42.4062 23.8965 42.7513 23.8281 43.0508 23.6914C43.3503 23.5482 43.6074 23.3594 43.8223 23.125C44.0436 22.8906 44.2259 22.6204 44.3691 22.3145C44.5124 22.0085 44.6263 21.6862 44.7109 21.3477C44.8021 21.0091 44.8639 20.6673 44.8965 20.3223C44.9355 19.9772 44.9551 19.6484 44.9551 19.3359ZM61.9375 18.5352C61.9375 19.2969 61.8431 20.0911 61.6543 20.918C61.472 21.7448 61.2148 22.5553 60.8828 23.3496C60.5508 24.1439 60.1536 24.8893 59.6914 25.5859C59.2292 26.2891 58.7214 26.8945 58.168 27.4023L56.9277 26.7285C57.1035 26.403 57.2695 26.0384 57.4258 25.6348C57.582 25.2311 57.722 24.8047 57.8457 24.3555C57.9759 23.8997 58.0898 23.431 58.1875 22.9492C58.2917 22.4674 58.3763 21.9922 58.4414 21.5234C58.513 21.0482 58.5651 20.5892 58.5977 20.1465C58.6367 19.6973 58.6562 19.2806 58.6562 18.8965C58.6562 18.6426 58.6465 18.3724 58.627 18.0859C58.6074 17.793 58.5651 17.5033 58.5 17.2168C58.4414 16.9238 58.36 16.6439 58.2559 16.377C58.1517 16.11 58.0117 15.8757 57.8359 15.6738C57.6667 15.472 57.4583 15.3092 57.2109 15.1855C56.9701 15.0618 56.6836 15 56.3516 15C56.026 15 55.7363 15.0749 55.4824 15.2246C55.2285 15.3678 55.0039 15.5599 54.8086 15.8008C54.6133 16.0352 54.444 16.3053 54.3008 16.6113C54.1641 16.9173 54.0501 17.2331 53.959 17.5586C53.8743 17.8776 53.8125 18.1934 53.7734 18.5059C53.7344 18.8184 53.7148 19.0983 53.7148 19.3457V25H50.4043V13.7207H51.6738L53.1875 16.3477C53.3698 15.9115 53.5977 15.5143 53.8711 15.1562C54.1445 14.7982 54.4538 14.4922 54.7988 14.2383C55.1439 13.9844 55.5247 13.7891 55.9414 13.6523C56.3646 13.5156 56.8203 13.4473 57.3086 13.4473C58.0898 13.4473 58.7702 13.5742 59.3496 13.8281C59.929 14.082 60.4108 14.4368 60.7949 14.8926C61.179 15.3418 61.4655 15.8789 61.6543 16.5039C61.8431 17.1224 61.9375 17.7995 61.9375 18.5352ZM67.582 10.9961C67.582 11.2435 67.5332 11.4779 67.4355 11.6992C67.3444 11.9206 67.2174 12.1126 67.0547 12.2754C66.8919 12.4382 66.6999 12.5684 66.4785 12.666C66.2572 12.7572 66.0228 12.8027 65.7754 12.8027C65.528 12.8027 65.2936 12.7572 65.0723 12.666C64.8574 12.5684 64.6686 12.4382 64.5059 12.2754C64.3431 12.1126 64.2129 11.9206 64.1152 11.6992C64.0241 11.4779 63.9785 11.2435 63.9785 10.9961C63.9785 10.7487 64.0241 10.5176 64.1152 10.3027C64.2129 10.0814 64.3431 9.88932 64.5059 9.72656C64.6686 9.5638 64.8574 9.43685 65.0723 9.3457C65.2936 9.24805 65.528 9.19922 65.7754 9.19922C66.0228 9.19922 66.2572 9.24805 66.4785 9.3457C66.6999 9.43685 66.8919 9.5638 67.0547 9.72656C67.2174 9.88932 67.3444 10.0814 67.4355 10.3027C67.5332 10.5176 67.582 10.7487 67.582 10.9961ZM67.4355 25H64.125V13.7305H67.4355V25ZM89.0371 21.1816C89.0371 21.5788 88.972 21.9499 88.8418 22.2949C88.7116 22.64 88.5326 22.9557 88.3047 23.2422C88.0768 23.5221 87.8099 23.7728 87.5039 23.9941C87.2044 24.2155 86.8789 24.401 86.5273 24.5508C86.1823 24.7005 85.8242 24.8145 85.4531 24.8926C85.082 24.9642 84.7174 25 84.3594 25H76.0879V10.9375H83.6465C83.9785 10.9375 84.3268 10.9635 84.6914 11.0156C85.056 11.0612 85.4108 11.1361 85.7559 11.2402C86.1074 11.3444 86.4395 11.4811 86.752 11.6504C87.071 11.8197 87.3477 12.028 87.582 12.2754C87.8229 12.5163 88.0117 12.7962 88.1484 13.1152C88.2917 13.4342 88.3633 13.7988 88.3633 14.209C88.3633 14.5996 88.2852 14.9544 88.1289 15.2734C87.9727 15.5924 87.7611 15.8789 87.4941 16.1328C87.2337 16.3802 86.931 16.6016 86.5859 16.7969C86.2474 16.9857 85.8893 17.1517 85.5117 17.2949C85.987 17.4251 86.4362 17.5977 86.8594 17.8125C87.2891 18.0273 87.6634 18.291 87.9824 18.6035C88.3079 18.916 88.5651 19.2871 88.7539 19.7168C88.9427 20.14 89.0371 20.6283 89.0371 21.1816ZM84.4277 14.5508C84.4277 13.7565 84.2161 13.1771 83.793 12.8125C83.3763 12.4479 82.7806 12.2656 82.0059 12.2656H79.9648V16.8262H81.6738C82.0254 16.8262 82.3672 16.7839 82.6992 16.6992C83.0312 16.6081 83.3242 16.4714 83.5781 16.2891C83.8385 16.1003 84.0436 15.8626 84.1934 15.5762C84.3496 15.2897 84.4277 14.9479 84.4277 14.5508ZM85.1113 20.9375C85.1113 20.5534 85.0625 20.1953 84.9648 19.8633C84.8672 19.5247 84.7174 19.235 84.5156 18.9941C84.3138 18.7467 84.0599 18.5547 83.7539 18.418C83.4544 18.2747 83.0996 18.2031 82.6895 18.2031H79.9648V23.6328H82.3477C82.7448 23.6328 83.1126 23.5677 83.4512 23.4375C83.7897 23.3073 84.0827 23.125 84.3301 22.8906C84.5775 22.6562 84.7695 22.373 84.9062 22.041C85.043 21.709 85.1113 21.3411 85.1113 20.9375ZM94.4961 10.9961C94.4961 11.2435 94.4473 11.4779 94.3496 11.6992C94.2585 11.9206 94.1315 12.1126 93.9688 12.2754C93.806 12.4382 93.6139 12.5684 93.3926 12.666C93.1712 12.7572 92.9368 12.8027 92.6895 12.8027C92.4421 12.8027 92.2077 12.7572 91.9863 12.666C91.7715 12.5684 91.5827 12.4382 91.4199 12.2754C91.2572 12.1126 91.127 11.9206 91.0293 11.6992C90.9382 11.4779 90.8926 11.2435 90.8926 10.9961C90.8926 10.7487 90.9382 10.5176 91.0293 10.3027C91.127 10.0814 91.2572 9.88932 91.4199 9.72656C91.5827 9.5638 91.7715 9.43685 91.9863 9.3457C92.2077 9.24805 92.4421 9.19922 92.6895 9.19922C92.9368 9.19922 93.1712 9.24805 93.3926 9.3457C93.6139 9.43685 93.806 9.5638 93.9688 9.72656C94.1315 9.88932 94.2585 10.0814 94.3496 10.3027C94.4473 10.5176 94.4961 10.7487 94.4961 10.9961ZM94.3496 25H91.0391V13.7305H94.3496V25ZM106.83 21.3965C106.83 21.8913 106.758 22.3307 106.615 22.7148C106.472 23.099 106.277 23.4342 106.029 23.7207C105.782 24.0007 105.489 24.2383 105.15 24.4336C104.812 24.6224 104.447 24.7754 104.057 24.8926C103.673 25.0098 103.269 25.0944 102.846 25.1465C102.423 25.1986 102.003 25.2246 101.586 25.2246C101.026 25.2246 100.531 25.1888 100.102 25.1172C99.6719 25.0456 99.2617 24.9316 98.8711 24.7754C98.4805 24.6126 98.0898 24.4043 97.6992 24.1504C97.3151 23.8965 96.8854 23.5872 96.4102 23.2227L98.334 21.6504C98.5098 21.9824 98.7409 22.2852 99.0273 22.5586C99.3203 22.8255 99.623 23.0566 99.9355 23.252C100.248 23.4473 100.551 23.597 100.844 23.7012C101.137 23.8053 101.374 23.8574 101.557 23.8574C101.706 23.8574 101.876 23.8542 102.064 23.8477C102.253 23.8346 102.445 23.8151 102.641 23.7891C102.836 23.7565 103.028 23.7109 103.217 23.6523C103.406 23.5938 103.572 23.5156 103.715 23.418C103.865 23.3138 103.982 23.1868 104.066 23.0371C104.158 22.8809 104.203 22.6953 104.203 22.4805C104.203 22.2591 104.145 22.0671 104.027 21.9043C103.917 21.735 103.77 21.5885 103.588 21.4648C103.406 21.3411 103.197 21.237 102.963 21.1523C102.729 21.0677 102.491 20.9928 102.25 20.9277C102.016 20.8626 101.788 20.8073 101.566 20.7617C101.345 20.7096 101.153 20.6608 100.99 20.6152C100.691 20.5306 100.375 20.446 100.043 20.3613C99.7109 20.2702 99.3822 20.1693 99.0566 20.0586C98.7311 19.9414 98.4186 19.8047 98.1191 19.6484C97.8262 19.4922 97.5658 19.3066 97.3379 19.0918C97.1165 18.8704 96.9375 18.6133 96.8008 18.3203C96.6706 18.0208 96.6055 17.6725 96.6055 17.2754C96.6055 16.5462 96.7487 15.9375 97.0352 15.4492C97.3281 14.9544 97.7122 14.5605 98.1875 14.2676C98.6628 13.9681 99.2031 13.7565 99.8086 13.6328C100.414 13.5091 101.029 13.4473 101.654 13.4473C102.084 13.4473 102.536 13.4928 103.012 13.584C103.487 13.6686 103.949 13.7988 104.398 13.9746C104.848 14.1439 105.268 14.3522 105.658 14.5996C106.049 14.847 106.374 15.1302 106.635 15.4492L104.711 17.0312C104.568 16.6406 104.379 16.3053 104.145 16.0254C103.917 15.7454 103.666 15.5176 103.393 15.3418C103.126 15.1595 102.849 15.026 102.562 14.9414C102.283 14.8568 102.022 14.8145 101.781 14.8145C101.547 14.8145 101.283 14.8242 100.99 14.8438C100.697 14.8633 100.421 14.9186 100.16 15.0098C99.9062 15.1009 99.6882 15.2409 99.5059 15.4297C99.3301 15.612 99.2422 15.8659 99.2422 16.1914C99.2422 16.4258 99.2943 16.6276 99.3984 16.7969C99.5091 16.9596 99.6523 17.1029 99.8281 17.2266C100.004 17.3438 100.202 17.4447 100.424 17.5293C100.652 17.6074 100.883 17.679 101.117 17.7441C101.352 17.8027 101.579 17.8548 101.801 17.9004C102.022 17.946 102.221 17.9948 102.396 18.0469C102.696 18.1315 103.012 18.2194 103.344 18.3105C103.682 18.3952 104.014 18.4961 104.34 18.6133C104.665 18.724 104.978 18.8574 105.277 19.0137C105.583 19.1634 105.85 19.349 106.078 19.5703C106.306 19.7917 106.488 20.0521 106.625 20.3516C106.762 20.6445 106.83 20.9928 106.83 21.3965ZM113.979 25H111.01L107.924 13.7207H111.225L113.158 21.6309L114.77 13.7207H117.738L119.711 21.8457L121.615 13.7207H123.9L120.482 25H117.514L115.844 18.1445L113.979 25ZM136.801 25H133.5V23.6523C133.109 24.1862 132.637 24.5833 132.084 24.8438C131.537 25.0977 130.935 25.2246 130.277 25.2246C129.418 25.2246 128.65 25.0716 127.973 24.7656C127.296 24.4596 126.723 24.043 126.254 23.5156C125.785 22.9818 125.427 22.3568 125.18 21.6406C124.932 20.9245 124.809 20.1562 124.809 19.3359C124.809 18.5156 124.932 17.7474 125.18 17.0312C125.427 16.3151 125.785 15.6934 126.254 15.166C126.723 14.6322 127.296 14.2122 127.973 13.9062C128.65 13.6003 129.418 13.4473 130.277 13.4473C130.714 13.4473 131.127 13.5124 131.518 13.6426C131.915 13.7728 132.276 13.9583 132.602 14.1992C132.934 14.4336 133.223 14.7201 133.471 15.0586C133.725 15.3906 133.923 15.7617 134.066 16.1719L135.531 13.7207H136.801V25ZM133.48 19.3359C133.48 19.043 133.464 18.7337 133.432 18.4082C133.406 18.0827 133.357 17.7604 133.285 17.4414C133.214 17.1224 133.113 16.8197 132.982 16.5332C132.859 16.2402 132.696 15.9831 132.494 15.7617C132.299 15.5339 132.061 15.3548 131.781 15.2246C131.501 15.0944 131.176 15.0293 130.805 15.0293C130.434 15.0293 130.111 15.0977 129.838 15.2344C129.564 15.3646 129.33 15.5436 129.135 15.7715C128.939 15.9928 128.777 16.25 128.646 16.543C128.523 16.8359 128.425 17.1419 128.354 17.4609C128.282 17.7799 128.23 18.1022 128.197 18.4277C128.171 18.7467 128.158 19.0495 128.158 19.3359C128.158 19.6224 128.171 19.9284 128.197 20.2539C128.23 20.5794 128.282 20.9017 128.354 21.2207C128.425 21.5397 128.523 21.8457 128.646 22.1387C128.777 22.4316 128.939 22.6921 129.135 22.9199C129.33 23.1413 129.564 23.3203 129.838 23.457C130.111 23.5872 130.434 23.6523 130.805 23.6523C131.143 23.6523 131.443 23.584 131.703 23.4473C131.97 23.304 132.201 23.1152 132.396 22.8809C132.598 22.6465 132.768 22.3796 132.904 22.0801C133.041 21.7806 133.152 21.4714 133.236 21.1523C133.321 20.8333 133.383 20.5176 133.422 20.2051C133.461 19.8861 133.48 19.5964 133.48 19.3359ZM149.271 21.3965C149.271 21.8913 149.2 22.3307 149.057 22.7148C148.913 23.099 148.718 23.4342 148.471 23.7207C148.223 24.0007 147.93 24.2383 147.592 24.4336C147.253 24.6224 146.889 24.7754 146.498 24.8926C146.114 25.0098 145.71 25.0944 145.287 25.1465C144.864 25.1986 144.444 25.2246 144.027 25.2246C143.467 25.2246 142.973 25.1888 142.543 25.1172C142.113 25.0456 141.703 24.9316 141.312 24.7754C140.922 24.6126 140.531 24.4043 140.141 24.1504C139.757 23.8965 139.327 23.5872 138.852 23.2227L140.775 21.6504C140.951 21.9824 141.182 22.2852 141.469 22.5586C141.762 22.8255 142.064 23.0566 142.377 23.252C142.689 23.4473 142.992 23.597 143.285 23.7012C143.578 23.8053 143.816 23.8574 143.998 23.8574C144.148 23.8574 144.317 23.8542 144.506 23.8477C144.695 23.8346 144.887 23.8151 145.082 23.7891C145.277 23.7565 145.469 23.7109 145.658 23.6523C145.847 23.5938 146.013 23.5156 146.156 23.418C146.306 23.3138 146.423 23.1868 146.508 23.0371C146.599 22.8809 146.645 22.6953 146.645 22.4805C146.645 22.2591 146.586 22.0671 146.469 21.9043C146.358 21.735 146.212 21.5885 146.029 21.4648C145.847 21.3411 145.639 21.237 145.404 21.1523C145.17 21.0677 144.932 20.9928 144.691 20.9277C144.457 20.8626 144.229 20.8073 144.008 20.7617C143.786 20.7096 143.594 20.6608 143.432 20.6152C143.132 20.5306 142.816 20.446 142.484 20.3613C142.152 20.2702 141.824 20.1693 141.498 20.0586C141.173 19.9414 140.86 19.8047 140.561 19.6484C140.268 19.4922 140.007 19.3066 139.779 19.0918C139.558 18.8704 139.379 18.6133 139.242 18.3203C139.112 18.0208 139.047 17.6725 139.047 17.2754C139.047 16.5462 139.19 15.9375 139.477 15.4492C139.77 14.9544 140.154 14.5605 140.629 14.2676C141.104 13.9681 141.645 13.7565 142.25 13.6328C142.855 13.5091 143.471 13.4473 144.096 13.4473C144.525 13.4473 144.978 13.4928 145.453 13.584C145.928 13.6686 146.391 13.7988 146.84 13.9746C147.289 14.1439 147.709 14.3522 148.1 14.5996C148.49 14.847 148.816 15.1302 149.076 15.4492L147.152 17.0312C147.009 16.6406 146.82 16.3053 146.586 16.0254C146.358 15.7454 146.107 15.5176 145.834 15.3418C145.567 15.1595 145.29 15.026 145.004 14.9414C144.724 14.8568 144.464 14.8145 144.223 14.8145C143.988 14.8145 143.725 14.8242 143.432 14.8438C143.139 14.8633 142.862 14.9186 142.602 15.0098C142.348 15.1009 142.13 15.2409 141.947 15.4297C141.771 15.612 141.684 15.8659 141.684 16.1914C141.684 16.4258 141.736 16.6276 141.84 16.7969C141.951 16.9596 142.094 17.1029 142.27 17.2266C142.445 17.3438 142.644 17.4447 142.865 17.5293C143.093 17.6074 143.324 17.679 143.559 17.7441C143.793 17.8027 144.021 17.8548 144.242 17.9004C144.464 17.946 144.662 17.9948 144.838 18.0469C145.137 18.1315 145.453 18.2194 145.785 18.3105C146.124 18.3952 146.456 18.4961 146.781 18.6133C147.107 18.724 147.419 18.8574 147.719 19.0137C148.025 19.1634 148.292 19.349 148.52 19.5703C148.747 19.7917 148.93 20.0521 149.066 20.3516C149.203 20.6445 149.271 20.9928 149.271 21.3965Z" fill="white"/>
</svg>
